<svg width="13" height="21" viewBox="0 0 13 21" fill="none" xmlns="http://www.w3.org/2000/svg">
<path d="M12.7459 0.943965C12.7459 0.79483 12.6867 0.651803 12.5812 0.546348C12.4758 0.440894 12.3328 0.38165 12.1836 0.38165H9.37204C7.95627 0.311125 6.57014 0.803826 5.5165 1.7521C4.46286 2.70038 3.82737 4.02713 3.74889 5.44249V8.47899H0.937315C0.78818 8.47899 0.645153 8.53823 0.539698 8.64369C0.434244 8.74914 0.375 8.89217 0.375 9.0413V11.9653C0.375 12.1145 0.434244 12.2575 0.539698 12.363C0.645153 12.4684 0.78818 12.5277 0.937315 12.5277H3.74889V20.0627C3.74889 20.2118 3.80813 20.3548 3.91359 20.4603C4.01904 20.5658 4.16207 20.625 4.31121 20.625H7.6851C7.83423 20.625 7.97726 20.5658 8.08272 20.4603C8.18817 20.3548 8.24741 20.2118 8.24741 20.0627V12.5277H11.1939C11.319 12.5295 11.4411 12.4895 11.5409 12.4142C11.6407 12.3388 11.7125 12.2323 11.745 12.1115L12.5547 9.18751C12.5771 9.10442 12.5801 9.01731 12.5635 8.93288C12.5469 8.84845 12.5112 8.76895 12.4591 8.70051C12.4069 8.63207 12.3398 8.5765 12.2628 8.5381C12.1858 8.49969 12.101 8.47947 12.0149 8.47899H8.24741V5.44249C8.27539 5.16411 8.40612 4.90616 8.61407 4.719C8.82202 4.53185 9.09227 4.42892 9.37204 4.43032H12.1836C12.3328 4.43032 12.4758 4.37108 12.5812 4.26562C12.6867 4.16017 12.7459 4.01714 12.7459 3.868V0.943965Z" fill="white"/>
</svg>
