<svg width="30" height="19" viewBox="0 0 30 19" fill="none" xmlns="http://www.w3.org/2000/svg">
<path d="M18.0967 8.21075C18.1827 8.66506 18.244 9.11937 18.244 9.70869C18.244 14.8534 14.7938 18.5 9.6001 18.5C4.62741 18.5 0.600098 14.4727 0.600098 9.5C0.600098 4.52727 4.62741 0.5 9.6001 0.5C12.0312 0.5 14.0571 1.38402 15.6287 2.85744L13.1853 5.20259C12.5223 4.56411 11.3559 3.81514 9.6001 3.81514C6.53054 3.81514 4.02572 6.35675 4.02572 9.5C4.02572 12.6432 6.53054 15.1849 9.6001 15.1849C13.1608 15.1849 14.4991 12.6187 14.7078 11.3049H9.6001V8.2107H18.0967V8.21075ZM26.7876 8.51248V5.9H24.1626V8.51248H21.5501V11.1375H24.1626V13.75H26.7876V11.1375H29.4001V8.51248H26.7876V8.51248Z" fill="white"/>
</svg>
