<svg width="25" height="25" viewBox="0 0 25 25" fill="none" xmlns="http://www.w3.org/2000/svg">
<path d="M3 6C4.65685 6 6 4.65685 6 3C6 1.34315 4.65685 0 3 0C1.34315 0 0 1.34315 0 3C0 4.65685 1.34315 6 3 6Z" fill="white"/>
<path d="M8.57582 8.40997V24.9986H13.8383V16.7952C13.8383 14.6305 14.2544 12.5342 16.9966 12.5342C19.7012 12.5342 19.7347 15.0091 19.7347 16.9318V25H25V15.9028C25 11.4342 24.017 8 18.6805 8C16.1184 8 14.401 9.37613 13.6987 10.6785H13.6275V8.40997H8.57582ZM0 8.40997H5.27087V24.9986H0V8.40997Z" fill="white"/>
</svg>
