<svg width="21" height="14" viewBox="0 0 21 14" fill="none" xmlns="http://www.w3.org/2000/svg">
<path d="M18 4.456V10.5625C18 11.1851 17.7618 11.7841 17.3342 12.2367C16.9067 12.6892 16.3221 12.961 15.7005 12.9963L15.5625 13H5.4375C4.8149 13 4.21588 12.7618 3.76333 12.3342C3.31078 11.9067 3.039 11.3221 3.00375 10.7005L3 10.5625V4.456L10.239 8.248C10.3195 8.29018 10.4091 8.31222 10.5 8.31222C10.5909 8.31222 10.6805 8.29018 10.761 8.248L18 4.456ZM5.4375 1H15.5625C16.1667 0.999927 16.7494 1.22425 17.1975 1.62945C17.6457 2.03465 17.9274 2.59186 17.988 3.193L10.5 7.1155L3.012 3.193C3.07014 2.61573 3.33229 2.07814 3.75131 1.67685C4.17034 1.27556 4.71876 1.03689 5.298 1.00375L5.4375 1Z" fill="#7A7A7A"/>
</svg>
