<svg width="0" height="0" class="hidden">
  <symbol width="30" height="19" viewBox="0 0 30 19" xmlns="http://www.w3.org/2000/svg" id="icon__googleplus">
    <path d="M18.0967 8.21075C18.1827 8.66506 18.244 9.11937 18.244 9.70869C18.244 14.8534 14.7938 18.5 9.6001 18.5C4.62741 18.5 0.600098 14.4727 0.600098 9.5C0.600098 4.52727 4.62741 0.5 9.6001 0.5C12.0312 0.5 14.0571 1.38402 15.6287 2.85744L13.1853 5.20259C12.5223 4.56411 11.3559 3.81514 9.6001 3.81514C6.53054 3.81514 4.02572 6.35675 4.02572 9.5C4.02572 12.6432 6.53054 15.1849 9.6001 15.1849C13.1608 15.1849 14.4991 12.6187 14.7078 11.3049H9.6001V8.2107H18.0967V8.21075ZM26.7876 8.51248V5.9H24.1626V8.51248H21.5501V11.1375H24.1626V13.75H26.7876V11.1375H29.4001V8.51248H26.7876V8.51248Z" fill="white"/>
  </symbol>
  <symbol width="22" height="23" viewBox="0 0 22 23" xmlns="http://www.w3.org/2000/svg" id="icon__externallink">
    <path d="M11.9166 3.25L14.9352 6.26858L8.51855 12.6853L9.81472 13.9814L16.2314 7.56475L19.25 10.5833V3.25H11.9166Z" fill="white"/>
    <path d="M17.4167 17.9167H4.58333V5.08333H11L9.16667 3.25H4.58333C3.57225 3.25 2.75 4.07225 2.75 5.08333V17.9167C2.75 18.9278 3.57225 19.75 4.58333 19.75H17.4167C18.4278 19.75 19.25 18.9278 19.25 17.9167V13.3333L17.4167 11.5V17.9167Z" fill="white"/>
  </symbol>
  <symbol width="13" height="21" viewBox="0 0 13 21" xmlns="http://www.w3.org/2000/svg" id="icon__facebook">
    <path d="M12.7459 0.943965C12.7459 0.79483 12.6867 0.651803 12.5812 0.546348C12.4758 0.440894 12.3328 0.38165 12.1836 0.38165H9.37204C7.95627 0.311125 6.57014 0.803826 5.5165 1.7521C4.46286 2.70038 3.82737 4.02713 3.74889 5.44249V8.47899H0.937315C0.78818 8.47899 0.645153 8.53823 0.539698 8.64369C0.434244 8.74914 0.375 8.89217 0.375 9.0413V11.9653C0.375 12.1145 0.434244 12.2575 0.539698 12.363C0.645153 12.4684 0.78818 12.5277 0.937315 12.5277H3.74889V20.0627C3.74889 20.2118 3.80813 20.3548 3.91359 20.4603C4.01904 20.5658 4.16207 20.625 4.31121 20.625H7.6851C7.83423 20.625 7.97726 20.5658 8.08272 20.4603C8.18817 20.3548 8.24741 20.2118 8.24741 20.0627V12.5277H11.1939C11.319 12.5295 11.4411 12.4895 11.5409 12.4142C11.6407 12.3388 11.7125 12.2323 11.745 12.1115L12.5547 9.18751C12.5771 9.10442 12.5801 9.01731 12.5635 8.93288C12.5469 8.84845 12.5112 8.76895 12.4591 8.70051C12.4069 8.63207 12.3398 8.5765 12.2628 8.5381C12.1858 8.49969 12.101 8.47947 12.0149 8.47899H8.24741V5.44249C8.27539 5.16411 8.40612 4.90616 8.61407 4.719C8.82202 4.53185 9.09227 4.42892 9.37204 4.43032H12.1836C12.3328 4.43032 12.4758 4.37108 12.5812 4.26562C12.6867 4.16017 12.7459 4.01714 12.7459 3.868V0.943965Z" fill="white"/>
  </symbol>
  <symbol width="24" height="25" viewBox="0 0 24 25" xmlns="http://www.w3.org/2000/svg" id="icon__github">
    <g clip-path="url(#clip0_15_44)">
      <path fill-rule="evenodd" clip-rule="evenodd" d="M12 0.5C5.37 0.5 0 5.87 0 12.5C0 17.81 3.435 22.295 8.205 23.885C8.805 23.99 9.03 23.63 9.03 23.315C9.03 23.03 9.015 22.085 9.015 21.08C6 21.635 5.22 20.345 4.98 19.67C4.845 19.325 4.26 18.26 3.75 17.975C3.33 17.75 2.73 17.195 3.735 17.18C4.68 17.165 5.355 18.05 5.58 18.41C6.66 20.225 8.385 19.715 9.075 19.4C9.18 18.62 9.495 18.095 9.84 17.795C7.17 17.495 4.38 16.46 4.38 11.87C4.38 10.565 4.845 9.485 5.61 8.645C5.49 8.345 5.07 7.115 5.73 5.465C5.73 5.465 6.735 5.15 9.03 6.695C9.99 6.425 11.01 6.29 12.03 6.29C13.05 6.29 14.07 6.425 15.03 6.695C17.325 5.135 18.33 5.465 18.33 5.465C18.99 7.115 18.57 8.345 18.45 8.645C19.215 9.485 19.68 10.55 19.68 11.87C19.68 16.475 16.875 17.495 14.205 17.795C14.64 18.17 15.015 18.89 15.015 20.015C15.015 21.62 15 22.91 15 23.315C15 23.63 15.225 24.005 15.825 23.885C18.2072 23.0807 20.2772 21.5497 21.7437 19.5074C23.2101 17.465 23.9993 15.0143 24 12.5C24 5.87 18.63 0.5 12 0.5Z" fill="white"/>
    </g>
    <defs>
      <clipPath id="clip0_15_44">
        <rect width="24" height="24" fill="white" transform="translate(0 0.5)"/>
      </clipPath>
    </defs>
  </symbol>
  <symbol width="24" height="19" viewBox="0 0 24 19" xmlns="http://www.w3.org/2000/svg" id="icon__twitter">
    <path d="M23.079 2.38261C22.2647 2.74342 21.39 2.98721 20.4704 3.0974C21.4193 2.52966 22.1291 1.63609 22.4676 0.583443C21.5761 1.11294 20.6005 1.48566 19.583 1.68537C18.8988 0.954847 17.9926 0.470642 17.005 0.307935C16.0174 0.145227 15.0038 0.31312 14.1214 0.785547C13.239 1.25797 12.5373 2.0085 12.1252 2.92061C11.713 3.83272 11.6136 4.85537 11.8422 5.8298C10.0359 5.7391 8.26887 5.26962 6.65576 4.45181C5.04265 3.63399 3.61952 2.48614 2.47874 1.08272C2.08867 1.75558 1.86439 2.53571 1.86439 3.36655C1.86395 4.11449 2.04814 4.85098 2.40061 5.51066C2.75307 6.17035 3.26292 6.73283 3.88492 7.14821C3.16357 7.12526 2.45814 6.93035 1.82733 6.5797V6.6382C1.82726 7.68722 2.19012 8.70396 2.85435 9.5159C3.51858 10.3278 4.44327 10.885 5.4715 11.0927C4.80233 11.2738 4.10076 11.3005 3.41977 11.1707C3.70987 12.0734 4.27498 12.8627 5.03596 13.4282C5.79695 13.9937 6.71572 14.307 7.66366 14.3244C6.05448 15.5876 4.06716 16.2729 2.02139 16.2699C1.659 16.2699 1.29692 16.2488 0.937012 16.2065C3.01359 17.5416 5.43088 18.2502 7.89965 18.2475C16.2568 18.2475 20.8254 11.3258 20.8254 5.32272C20.8254 5.12768 20.8205 4.9307 20.8117 4.73567C21.7004 4.09301 22.4675 3.29721 23.077 2.38554L23.079 2.38261V2.38261Z" fill="white"/>
  </symbol>
</svg>

