<svg viewBox="0 0 30 25" xmlns="http://www.w3.org/2000/svg">
<path d="M29.5226 2.96546C28.4369 3.46658 27.2706 3.80518 26.0445 3.95822C27.3097 3.16969 28.2561 1.92863 28.7074 0.466611C27.5188 1.20203 26.2179 1.71968 24.8614 1.99707C23.9491 0.98245 22.7408 0.309944 21.424 0.0839617C20.1072 -0.142021 18.7557 0.0911637 17.5792 0.747312C16.4027 1.40346 15.467 2.44586 14.9175 3.71268C14.368 4.97949 14.2354 6.39985 14.5403 7.75322C12.1319 7.62725 9.77581 6.97519 7.625 5.83934C5.47418 4.70349 3.57668 3.10924 2.05564 1.16006C1.53555 2.09459 1.2365 3.1781 1.2365 4.33203C1.23592 5.37084 1.4815 6.39374 1.95146 7.30997C2.42142 8.2262 3.10122 9.00743 3.93054 9.58435C2.96874 9.55247 2.02817 9.28176 1.18709 8.79474V8.876C1.187 10.333 1.67082 11.7451 2.55645 12.8728C3.44209 14.0005 4.67501 14.7743 6.04599 15.0628C5.15376 15.3144 4.21833 15.3514 3.31034 15.1712C3.69715 16.4248 4.45062 17.5211 5.46527 18.3065C6.47992 19.0919 7.70495 19.5272 8.96886 19.5513C6.8233 21.3058 4.17353 22.2575 1.44584 22.2533C0.962652 22.2534 0.479877 22.224 0 22.1653C2.76877 24.0196 5.99182 25.0038 9.28351 25C20.4263 25 26.5178 15.3865 26.5178 7.04894C26.5178 6.77806 26.5113 6.50447 26.4996 6.23359C27.6845 5.34102 28.7073 4.23573 29.52 2.96952L29.5226 2.96546V2.96546Z" fill="white"/>
</svg>
