<svg width="24" height="19" viewBox="0 0 24 19" fill="none" xmlns="http://www.w3.org/2000/svg">
<path d="M23.079 2.38261C22.2647 2.74342 21.39 2.98721 20.4704 3.0974C21.4193 2.52966 22.1291 1.63609 22.4676 0.583443C21.5761 1.11294 20.6005 1.48566 19.583 1.68537C18.8988 0.954847 17.9926 0.470642 17.005 0.307935C16.0174 0.145227 15.0038 0.31312 14.1214 0.785547C13.239 1.25797 12.5373 2.0085 12.1252 2.92061C11.713 3.83272 11.6136 4.85537 11.8422 5.8298C10.0359 5.7391 8.26887 5.26962 6.65576 4.45181C5.04265 3.63399 3.61952 2.48614 2.47874 1.08272C2.08867 1.75558 1.86439 2.53571 1.86439 3.36655C1.86395 4.11449 2.04814 4.85098 2.40061 5.51066C2.75307 6.17035 3.26292 6.73283 3.88492 7.14821C3.16357 7.12526 2.45814 6.93035 1.82733 6.5797V6.6382C1.82726 7.68722 2.19012 8.70396 2.85435 9.5159C3.51858 10.3278 4.44327 10.885 5.4715 11.0927C4.80233 11.2738 4.10076 11.3005 3.41977 11.1707C3.70987 12.0734 4.27498 12.8627 5.03596 13.4282C5.79695 13.9937 6.71572 14.307 7.66366 14.3244C6.05448 15.5876 4.06716 16.2729 2.02139 16.2699C1.659 16.2699 1.29692 16.2488 0.937012 16.2065C3.01359 17.5416 5.43088 18.2502 7.89965 18.2475C16.2568 18.2475 20.8254 11.3258 20.8254 5.32272C20.8254 5.12768 20.8205 4.9307 20.8117 4.73567C21.7004 4.09301 22.4675 3.29721 23.077 2.38554L23.079 2.38261V2.38261Z" fill="white"/>
</svg>
